<?xml version="1.0" encoding="UTF-8"?>
<svg width="40px" height="40px" viewBox="0 0 40 40" version="1.1" xmlns="http://www.w3.org/2000/svg" xmlns:xlink="http://www.w3.org/1999/xlink">
    <!-- Generator: Sketch 41 (35326) - http://www.bohemiancoding.com/sketch -->
    <title>dribble</title>
    <desc>Created with Sketch.</desc>
    <defs></defs>
    <g id="Page-1" stroke="none" stroke-width="1" fill="none" fill-rule="evenodd">
        <g id="About" transform="translate(-314.000000, -627.000000)" fill="#FFFFFF">
            <g id="About-Detail" transform="translate(81.000000, 14.000000)">
                <g id="FULL-WHITE" transform="translate(64.000000, 613.000000)">
                    <g id="dribble" transform="translate(169.000000, 0.000000)">
                        <path d="M20.0155844,0.0675324675 C9.12207792,0.0675324675 0.290909091,8.8987013 0.290909091,19.7922078 C0.290909091,30.6805195 9.12207792,39.5116883 20.0155844,39.5116883 C30.9038961,39.5116883 39.7350649,30.6805195 39.7350649,19.7922078 C39.7350649,8.8987013 30.9038961,0.0675324675 20.0155844,0.0675324675 L20.0155844,0.0675324675 Z M29.3454545,21.6571429 C29.2207792,22.2701299 29.0337662,22.8727273 28.7896104,23.4441558 C28.5506494,24.0103896 28.2545455,24.5558442 27.9116883,25.0649351 C27.574026,25.5688312 27.1792208,26.0415584 26.7480519,26.4727273 C26.3168831,26.9038961 25.8441558,27.2935065 25.3402597,27.6363636 C24.8311688,27.9792208 24.2857143,28.2753247 23.7246753,28.5142857 C23.1480519,28.7584416 22.5454545,28.9454545 21.9324675,29.0701299 C21.3038961,29.2 20.6597403,29.2623377 20.0155844,29.2623377 C19.3662338,29.2623377 18.7220779,29.2 18.0935065,29.0701299 C17.4857143,28.9454545 16.8831169,28.7584416 16.3064935,28.5142857 C15.7402597,28.2753247 15.1948052,27.9792208 14.6857143,27.6363636 C14.1818182,27.2935065 13.7090909,26.9038961 13.2779221,26.4727273 C12.8467532,26.0415584 12.4571429,25.5688312 12.1142857,25.0649351 C11.7714286,24.5558442 11.4753247,24.0103896 11.2363636,23.4441558 C10.9922078,22.8727273 10.8051948,22.2701299 10.6805195,21.6571429 C10.5506494,21.0285714 10.4883117,20.3844156 10.4883117,19.7350649 C10.4883117,19.0909091 10.5506494,18.4467532 10.6805195,17.8181818 C10.8051948,17.2103896 10.9922078,16.6025974 11.2363636,16.0311688 C11.4753247,15.4649351 11.7714286,14.9194805 12.1142857,14.4103896 C12.4571429,13.9064935 12.8467532,13.4337662 13.2779221,13.0025974 C13.7090909,12.5714286 14.1818182,12.1818182 14.6857143,11.838961 C15.1948052,11.4961039 15.7402597,11.2 16.3064935,10.961039 C16.8831169,10.7168831 17.4857143,10.5298701 18.0935065,10.4051948 C18.7220779,10.2753247 19.3662338,10.212987 20.0155844,10.212987 C20.6597403,10.212987 21.3038961,10.2753247 21.9324675,10.4051948 C22.5454545,10.5298701 23.1480519,10.7168831 23.7246753,10.961039 C24.2857143,11.2 24.8311688,11.4961039 25.3402597,11.838961 C25.8441558,12.1818182 26.3168831,12.5714286 26.7480519,13.0025974 C27.1792208,13.4337662 27.574026,13.9064935 27.9116883,14.4103896 C28.2545455,14.9194805 28.5506494,15.4649351 28.7896104,16.0311688 C29.0337662,16.6025974 29.2207792,17.2103896 29.3454545,17.8181818 C29.4753247,18.4467532 29.5376623,19.0909091 29.5376623,19.7350649 C29.5376623,20.3844156 29.4753247,21.0285714 29.3454545,21.6571429 L29.3454545,21.6571429 Z" id="Dribbble-Circle"></path>
                        <path d="M12.0519481,18.0623377 C12.5818182,15.5428571 14.2753247,13.4493506 16.5454545,12.3792208 C16.6493506,12.5246753 18.1558442,14.5662338 19.5636364,17.0701299 C15.6571429,18.1038961 12.2649351,18.0623377 12.0519481,18.0623377 Z M13.9584416,25.1688312 C12.6649351,23.7246753 11.8805195,21.8285714 11.8805195,19.7350649 C11.8805195,19.6519481 11.8805195,19.5636364 11.8857143,19.4805195 C12.0311688,19.4857143 16.0467532,19.574026 20.238961,18.3220779 C20.4727273,18.7792208 20.6909091,19.2415584 20.8987013,19.7038961 C20.7896104,19.7350649 20.6857143,19.7662338 20.5766234,19.8025974 C16.187013,21.2207792 13.9584416,25.1688312 13.9584416,25.1688312 Z M21.4545455,21.0493506 C22.5974026,24.025974 23.0701299,26.5142857 23.1896104,27.225974 C22.212987,27.6415584 21.1428571,27.8753247 20.0155844,27.8753247 C18.1298701,27.8753247 16.3948052,27.2311688 15.012987,26.1506494 C15.012987,26.1506494 16.5714286,22.7480519 21.3974026,21.0701299 C21.4181818,21.0597403 21.4337662,21.0597403 21.4545455,21.0493506 Z M21.1376623,16.5766234 C19.7454545,14.0207792 18.2181818,11.9948052 18.0987013,11.8337662 C18.7116883,11.6831169 19.3558442,11.6 20.0155844,11.6 C22.0727273,11.6 23.9532468,12.3688312 25.387013,13.6311688 C25.3662338,13.6623377 24.2077922,15.4285714 21.1376623,16.5766234 Z M28.0467532,21.0285714 C27.6831169,23.2987013 26.3844156,25.2519481 24.561039,26.4831169 C24.4779221,25.9948052 24.0415584,23.6051948 22.9766234,20.6753247 C25.6051948,20.2545455 27.8805195,20.9766234 28.0467532,21.0285714 Z M26.2961039,14.5714286 C27.438961,15.9584416 28.1298701,17.7246753 28.1454545,19.6571429 C28.0311688,19.6311688 25.2779221,19.038961 22.4831169,19.387013 C22.4207792,19.2519481 22.3636364,19.1116883 22.3064935,18.9714286 C22.1350649,18.5714286 21.9532468,18.1766234 21.7662338,17.7922078 C24.9766234,16.4779221 26.2805195,14.5922078 26.2961039,14.5714286 Z" id="Dribbble"></path>
                    </g>
                </g>
            </g>
        </g>
    </g>
</svg>