<?xml version="1.0" encoding="UTF-8"?>
<svg width="40px" height="40px" viewBox="0 0 40 40" version="1.1" xmlns="http://www.w3.org/2000/svg" xmlns:xlink="http://www.w3.org/1999/xlink">
    <!-- Generator: Sketch 41 (35326) - http://www.bohemiancoding.com/sketch -->
    <title>instagram</title>
    <desc>Created with Sketch.</desc>
    <defs></defs>
    <g id="Page-1" stroke="none" stroke-width="1" fill="none" fill-rule="evenodd">
        <g id="About" transform="translate(-258.000000, -627.000000)" fill="#FFFFFF">
            <g id="About-Detail" transform="translate(81.000000, 14.000000)">
                <g id="FULL-WHITE" transform="translate(64.000000, 613.000000)">
                    <g id="instagram" transform="translate(113.000000, 0.000000)">
                        <path d="M20.3183773,0 C9.46516759,0 0.666666667,8.79850093 0.666666667,19.6517106 C0.666666667,30.4997447 9.46516759,39.2982456 20.3183773,39.2982456 C31.1664114,39.2982456 39.9649123,30.4997447 39.9649123,19.6517106 C39.9649123,8.79850093 31.1664114,0 20.3183773,0 L20.3183773,0 Z M30.3952486,26.8354278 C30.3952486,28.0775691 29.2876726,28.9160145 28.0455313,28.9160145 L13.5797607,28.9160145 C12.3324438,28.9160145 11.2455701,28.0775691 11.2455701,26.8354278 L11.2455701,12.359306 C11.2455701,11.1171647 12.3324438,10.2838949 13.5797607,10.2838949 L28.0455313,10.2838949 C29.2876726,10.2838949 30.3952486,11.1171647 30.3952486,12.359306 L30.3952486,26.8354278 L30.3952486,26.8354278 Z" id="Instagram-Circle"></path>
                        <path d="M17.0993345,19.7662432 C17.0993345,17.7894737 18.7000605,16.1887477 20.67683,16.1887477 C22.6586812,16.1887477 24.2644888,17.7894737 24.2644888,19.7662432 C24.2644888,21.737931 22.6586812,23.338657 20.67683,23.338657 C18.7000605,23.338657 17.0993345,21.737931 17.0993345,19.7662432 Z M27.5269208,15.0961887 C27.5269208,15.4188748 27.2652148,15.6805808 26.9425287,15.6805808 L25.0623109,15.6805808 C24.7396249,15.6805808 24.4779189,15.4188748 24.4779189,15.0961887 L24.4779189,13.215971 C24.4779189,12.8932849 24.7396249,12.6315789 25.0623109,12.6315789 L26.9425287,12.6315789 C27.2652148,12.6315789 27.5269208,12.8932849 27.5269208,13.215971 L27.5269208,15.0961887 Z M25.8957048,18.2214156 L28.0350877,18.2214156 L28.0350877,26.7281307 C28.0350877,27.0533575 27.9639443,27.3684211 27.6437992,27.3684211 L13.6692075,27.3684211 C13.3490623,27.3684211 13.2982456,27.0533575 13.2982456,26.7281307 L13.2982456,18.2214156 L15.4173019,18.2214156 C15.1124017,18.2214156 15.0107683,19.3597096 15.0107683,19.8780399 C15.0107683,22.9931034 17.5566848,25.4780399 20.67683,25.4780399 C23.8071385,25.4780399 26.3479734,23.0210526 26.3479734,19.9059891 C26.3479734,19.3876588 26.2717483,18.2214156 25.8957048,18.2214156 Z" id="Instagram"></path>
                    </g>
                </g>
            </g>
        </g>
    </g>
</svg>