<?xml version="1.0" encoding="UTF-8"?>
<svg width="41px" height="41px" viewBox="0 0 41 41" version="1.1" xmlns="http://www.w3.org/2000/svg" xmlns:xlink="http://www.w3.org/1999/xlink">
    <!-- Generator: Sketch 41 (35326) - http://www.bohemiancoding.com/sketch -->
    <title>Linkedin</title>
    <desc>Created with Sketch.</desc>
    <defs></defs>
    <g id="Page-1" stroke="none" stroke-width="1" fill="none" fill-rule="evenodd">
        <g id="About" transform="translate(-145.000000, -627.000000)" fill="#FFFFFF">
            <g id="About-Detail" transform="translate(81.000000, 14.000000)">
                <g id="FULL-WHITE" transform="translate(64.000000, 613.000000)">
                    <path d="M20.8447393,0.701754386 C9.79772228,0.701754386 0.842105263,9.6573714 0.842105263,20.7043884 C0.842105263,31.7461374 9.79772228,40.7017544 20.8447393,40.7017544 C31.8864882,40.7017544 40.8421053,31.7461374 40.8421053,20.7043884 C40.8421053,9.6573714 31.8864882,0.701754386 20.8447393,0.701754386 L20.8447393,0.701754386 Z M12.1367187,17.4909023 L15.8243257,17.4909023 L15.8243257,29.6073253 L12.1367187,29.6073253 L12.1367187,17.4909023 Z M13.7645338,16.4373003 L13.7381938,16.4373003 C12.3632432,16.4373003 11.4782175,15.3889663 11.4782175,14.2247361 C11.4782175,13.0394338 12.3895832,12.075388 13.7908739,12.075388 C15.1868965,12.075388 16.0455821,13.0710419 16.0771902,14.2563441 C16.0771902,15.4205744 15.1868965,16.4373003 13.7645338,16.4373003 L13.7645338,16.4373003 Z M31.1015548,29.6073253 L26.3603457,29.6073253 L26.3603457,23.4700936 C26.3603457,21.8422786 25.8177407,20.7359965 24.3374299,20.7359965 C23.2100758,20.7359965 22.5568425,21.4840539 22.261834,22.2057712 C22.1512058,22.4639037 22.1459377,22.8221284 22.1459377,23.1856211 L22.1459377,29.6073253 L18.068498,29.6073253 C18.068498,29.6073253 18.1211781,18.5445043 18.068498,17.4909023 L22.1459377,17.4909023 L22.1459377,19.5612302 C22.6727387,18.7394207 23.9370611,17.5646544 26.1074813,17.5646544 C28.7994344,17.5646544 31.1015548,19.2872937 31.1015548,23.0065088 L31.1015548,29.6073253 L31.1015548,29.6073253 Z" id="Linkedin"></path>
                </g>
            </g>
        </g>
    </g>
</svg>