<?xml version="1.0" encoding="UTF-8"?>
<svg width="40px" height="40px" viewBox="0 0 40 40" version="1.1" xmlns="http://www.w3.org/2000/svg" xmlns:xlink="http://www.w3.org/1999/xlink">
    <!-- Generator: Sketch 41 (35326) - http://www.bohemiancoding.com/sketch -->
    <title>Twitter</title>
    <desc>Created with Sketch.</desc>
    <defs></defs>
    <g id="Page-1" stroke="none" stroke-width="1" fill="none" fill-rule="evenodd">
        <g id="About" transform="translate(-202.000000, -627.000000)" fill="#FFFFFF">
            <g id="About-Detail" transform="translate(81.000000, 14.000000)">
                <g id="FULL-WHITE" transform="translate(64.000000, 613.000000)">
                    <path d="M77,0 C65.955617,0 57,8.95561702 57,20 C57,31.044383 65.955617,40 77,40 C88.044383,40 97,31.044383 97,20 C97,8.95561702 88.044383,0 77,0 L77,0 Z M85,16 C84.9599466,16.1576418 84.965287,16.3319449 85,17 C84.965287,21.842999 80.8371162,28 73,28 C70.9732977,28 68.8157543,27.3284204 67,26 C67.3204272,26.221083 67.6461949,26.2415892 68,26 C69.8998665,26.2415892 71.6728972,25.5956424 73,25 C71.2777036,24.4780519 69.7663551,23.3143223 69,22 C69.493992,21.7558475 69.7503338,21.7814803 70,22 C70.3911883,21.7814803 70.7970628,21.7302147 71,22 C69.259012,21.2688241 67.8865154,19.6334508 68,18 L68,18 C68.4205607,17.9263057 69.034713,18.1108619 70,18 C68.6021362,17.4085229 67.8598131,16.1678949 68,15 C67.8598131,14.0301186 68.0520694,13.3329061 68,13 C70.4285714,15.183595 73.4459279,16.7882089 77,17 C76.7837116,16.6600449 76.7489987,16.3524511 77,16 C76.7489987,13.8096764 78.5845127,12 81,12 C82.0296395,12 83.0966622,12.4870234 84,13 C84.7789052,13.0919577 85.6547397,12.7587312 86,12 C86.1460614,13.2355014 85.493992,14.0301186 85,15 C85.4779706,14.4299904 86.2683578,14.2146748 87,14 C86.4552737,14.7016982 85.7556742,15.4142903 85,16 L85,16 Z" id="Twitter"></path>
                </g>
            </g>
        </g>
    </g>
</svg>