<?xml version="1.0" standalone="no"?>
<!DOCTYPE svg PUBLIC "-//W3C//DTD SVG 20010904//EN"
 "http://www.w3.org/TR/2001/REC-SVG-20010904/DTD/svg10.dtd">
<svg version="1.0" xmlns="http://www.w3.org/2000/svg"
 width="16.000000pt" height="16.000000pt" viewBox="0 0 16.000000 16.000000"
 preserveAspectRatio="xMidYMid meet">
<metadata>
Created by potrace 1.11, written by Peter Selinger 2001-2013
</metadata>
<g transform="translate(0.000000,16.000000) scale(0.001563,-0.001563)"
fill="#000000" stroke="none">
<path d="M10031 7977 c-19 -39 -35 -74 -36 -77 -1 -3 -46 -97 -102 -210 -55
-113 -146 -297 -201 -410 -172 -354 -331 -679 -415 -850 -45 -91 -82 -167 -83
-170 -4 -20 -140 -287 -148 -292 -6 -4 -8 -8 -4 -8 5 0 -8 -30 -27 -67 -19
-37 -35 -73 -35 -80 0 -7 -4 -13 -10 -13 -5 0 -10 -9 -10 -20 0 -11 -4 -20
-10 -20 -5 0 -10 -5 -10 -10 0 -6 -38 -90 -85 -186 -47 -96 -85 -179 -85 -184
0 -4 -5 -10 -11 -12 -5 -2 -11 -10 -13 -18 -1 -8 -53 -118 -115 -245 -63 -126
-151 -306 -196 -400 -45 -93 -134 -276 -198 -405 -63 -129 -163 -334 -221
-455 -59 -121 -122 -249 -139 -285 -18 -36 -36 -68 -42 -72 -5 -4 -7 -8 -3 -8
3 0 -20 -53 -52 -117 -67 -136 -252 -514 -382 -783 l-90 -185 -107 216 c-190
387 -263 538 -261 545 1 4 -2 10 -7 13 -5 3 -25 40 -44 81 -20 41 -82 167
-137 280 -308 630 -352 721 -352 730 0 6 -4 10 -10 10 -5 0 -9 3 -8 8 1 4 -30
72 -69 152 -39 80 -123 253 -188 385 -64 132 -128 264 -142 292 l-26 53 75
152 c74 150 269 549 311 638 12 25 25 47 30 48 4 2 7 8 7 14 0 6 52 117 116
247 263 533 344 701 344 711 0 5 5 10 10 10 6 0 10 4 10 9 0 6 41 93 90 194
50 102 90 190 90 196 0 6 3 11 8 11 4 0 13 15 21 33 8 17 72 149 142 292 70
143 126 261 124 263 -3 4 -120 5 -163 3 -12 -1 -252 -479 -252 -501 0 -6 -5
-10 -10 -10 -6 0 -9 -3 -8 -7 1 -5 -32 -78 -74 -163 -74 -152 -212 -434 -388
-795 -48 -99 -133 -274 -189 -390 -56 -115 -106 -219 -113 -230 -21 -37 -27
-49 -101 -205 -41 -85 -116 -240 -168 -345 -51 -104 -94 -192 -94 -195 0 -3
-44 -93 -98 -201 -53 -108 -97 -201 -97 -207 0 -7 -4 -12 -10 -12 -5 0 -10 -4
-10 -10 0 -5 -44 -98 -97 -207 -53 -109 -98 -204 -99 -211 -1 -8 -10 -22 -18
-31 -9 -10 -16 -21 -16 -25 0 -4 -21 -51 -47 -104 -26 -54 -46 -100 -45 -105
1 -4 -3 -7 -8 -7 -6 0 -10 -4 -10 -10 0 -5 -40 -91 -90 -192 -49 -101 -90
-189 -90 -195 0 -7 -4 -13 -9 -13 -5 0 -13 -9 -16 -21 -6 -18 -52 -114 -352
-729 -162 -332 -221 -455 -221 -464 0 -5 -4 -12 -9 -15 -4 -3 -16 -21 -25 -39
l-17 -32 84 0 85 0 116 237 c64 131 178 362 252 513 75 151 137 282 138 290 2
8 8 16 13 18 6 2 11 8 11 12 0 17 63 140 71 140 5 0 9 -4 9 -10 0 -5 50 -109
110 -232 61 -122 110 -228 110 -235 0 -7 5 -13 10 -13 6 0 10 -4 10 -9 0 -6
68 -149 151 -318 83 -169 164 -335 180 -368 l29 -61 795 0 c760 0 795 1 789
18 -4 15 0 18 28 18 l33 0 99 203 c55 111 209 424 343 695 133 270 243 497
243 502 0 6 5 10 10 10 6 0 10 7 10 15 0 17 20 56 33 66 5 3 8 8 7 10 -3 8 14
44 35 79 12 19 23 40 24 45 1 11 176 371 191 395 5 8 16 29 24 45 67 144 241
491 248 493 4 2 8 9 8 16 0 8 116 247 257 532 141 286 256 522 255 526 -1 3 5
12 13 18 8 7 15 17 15 21 0 5 40 90 89 189 49 99 86 180 83 180 -4 0 -2 4 3 8
12 8 115 215 115 230 0 6 4 12 8 14 9 3 72 134 72 148 0 6 5 10 10 10 6 0 10
5 10 10 0 10 290 608 310 640 5 8 16 29 24 45 64 139 202 411 210 417 6 4 8 8
4 8 -4 0 4 23 18 51 14 28 24 51 22 53 -13 8 -135 66 -139 66 -2 0 -19 -33
-38 -73z"/>
<path d="M25 7966 c13 -28 48 -100 78 -161 30 -60 82 -168 117 -240 35 -71
105 -214 156 -317 51 -104 90 -188 88 -188 -3 0 3 -12 13 -27 10 -16 32 -57
48 -93 16 -36 36 -73 44 -82 8 -10 11 -18 7 -18 -4 0 2 -13 14 -30 12 -16 19
-30 16 -30 -3 0 15 -39 39 -86 25 -48 45 -93 45 -100 0 -8 5 -14 10 -14 6 0
10 -4 10 -9 0 -5 50 -111 112 -237 62 -126 112 -231 113 -234 1 -3 49 -102
107 -220 138 -281 307 -626 428 -875 140 -288 297 -609 415 -850 57 -115 149
-304 205 -420 307 -630 566 -1160 653 -1335 59 -120 63 -125 94 -127 27 -1 34
4 45 28 7 16 16 29 20 29 5 0 8 6 8 14 0 8 25 63 55 123 30 59 55 114 55 121
0 6 5 12 10 12 6 0 10 9 10 20 0 11 5 20 10 20 6 0 10 5 10 10 0 11 45 106
305 635 86 176 157 325 158 330 1 6 5 12 8 15 4 3 28 50 54 105 44 94 46 102
35 135 -7 19 -18 42 -26 50 -7 8 -13 18 -13 23 -1 4 -43 94 -95 200 -231 474
-306 628 -423 867 -158 322 -204 418 -204 427 0 5 -6 15 -13 23 -7 8 -26 44
-43 80 -33 69 -180 372 -343 705 -54 110 -149 306 -212 435 -63 129 -151 309
-196 400 -44 91 -148 305 -232 475 -83 171 -168 344 -189 385 l-38 75 -795 1
-795 0 22 -50z"/>
<path d="M2970 8013 c0 -3 109 -228 280 -578 62 -126 164 -336 227 -465 64
-129 159 -325 213 -435 54 -110 143 -294 200 -410 248 -507 290 -596 290 -604
0 -5 6 -14 14 -20 8 -7 17 -24 21 -38 3 -15 15 -38 25 -52 10 -14 18 -29 19
-34 1 -13 56 -126 61 -127 3 0 34 60 69 133 36 72 126 258 201 412 262 535
322 658 331 679 5 12 13 28 18 36 5 8 40 78 77 155 37 77 75 156 85 176 l18
36 -86 174 c-98 201 -223 456 -365 749 -55 113 -102 207 -105 210 -5 5 -1593
8 -1593 3z"/>
</g>
</svg>
